<?xml version="1.0" encoding="UTF-8" standalone="no"?>
<!-- Created with Inkscape (http://www.inkscape.org/) -->

<svg
   xmlns:dc="http://purl.org/dc/elements/1.1/"
   xmlns:cc="http://creativecommons.org/ns#"
   xmlns:rdf="http://www.w3.org/1999/02/22-rdf-syntax-ns#"
   xmlns:svg="http://www.w3.org/2000/svg"
   xmlns="http://www.w3.org/2000/svg"
   xmlns:sodipodi="http://sodipodi.sourceforge.net/DTD/sodipodi-0.dtd"
   xmlns:inkscape="http://www.inkscape.org/namespaces/inkscape"
   width="210mm"
   height="297mm"
   viewBox="0 0 744.09448819 1052.3622047"
   id="svg2"
   version="1.1"
   inkscape:version="0.91 r13725"
   sodipodi:docname="base_icon.svg">
  <defs
     id="defs4">
    <clipPath
       clipPathUnits="userSpaceOnUse"
       id="clipPath4178">
      <path
         sodipodi:type="star"
         style="color:#000000;clip-rule:nonzero;display:inline;overflow:visible;visibility:visible;opacity:1;isolation:auto;mix-blend-mode:normal;color-interpolation:sRGB;color-interpolation-filters:linearRGB;solid-color:#000000;solid-opacity:1;fill:#000000;fill-opacity:0.04733725;fill-rule:nonzero;stroke:#000000;stroke-width:3;stroke-linecap:round;stroke-linejoin:miter;stroke-miterlimit:4;stroke-dasharray:none;stroke-dashoffset:0;stroke-opacity:0.26627221;color-rendering:auto;image-rendering:auto;shape-rendering:auto;text-rendering:auto;enable-background:accumulate"
         id="path4180"
         sodipodi:sides="6"
         sodipodi:cx="96.974648"
         sodipodi:cy="162.41782"
         sodipodi:r1="84.385536"
         sodipodi:r2="73.080017"
         sodipodi:arg1="-3.1415927"
         sodipodi:arg2="-2.6179939"
         inkscape:flatsided="true"
         inkscape:rounded="0"
         inkscape:randomized="0"
         d="m 12.589111,162.41782 42.192765,-73.08002 84.385534,-4e-6 42.19277,73.080014 -42.19276,73.08002 -84.385537,1e-5 z"
         transform="matrix(1.9378521,0,0,1.9961589,30.648906,-163.27814)" />
    </clipPath>
  </defs>
  <sodipodi:namedview
     id="base"
     pagecolor="#ffffff"
     bordercolor="#666666"
     borderopacity="1.0"
     inkscape:pageopacity="0.0"
     inkscape:pageshadow="2"
     inkscape:zoom="0.49497475"
     inkscape:cx="834.25018"
     inkscape:cy="508.31106"
     inkscape:document-units="px"
     inkscape:current-layer="layer1"
     showgrid="false"
     showguides="false"
     inkscape:window-width="1280"
     inkscape:window-height="971"
     inkscape:window-x="-8"
     inkscape:window-y="-8"
     inkscape:window-maximized="1" />
  <metadata
     id="metadata7">
    <rdf:RDF>
      <cc:Work
         rdf:about="">
        <dc:format>image/svg+xml</dc:format>
        <dc:type
           rdf:resource="http://purl.org/dc/dcmitype/StillImage" />
        <dc:title />
      </cc:Work>
    </rdf:RDF>
  </metadata>
  <g
     inkscape:label="Layer 1"
     inkscape:groupmode="layer"
     id="layer1">
    <path
       sodipodi:type="star"
       style="color:#000000;clip-rule:nonzero;display:inline;overflow:visible;visibility:visible;opacity:1;isolation:auto;mix-blend-mode:normal;color-interpolation:sRGB;color-interpolation-filters:linearRGB;solid-color:#000000;solid-opacity:1;fill:#000000;fill-opacity:1;fill-rule:nonzero;stroke:#857d7d;stroke-width:4.31539631;stroke-linecap:round;stroke-linejoin:miter;stroke-miterlimit:4;stroke-dasharray:none;stroke-dashoffset:0;stroke-opacity:0.99337751;color-rendering:auto;image-rendering:auto;shape-rendering:auto;text-rendering:auto;enable-background:accumulate"
       id="path4138"
       sodipodi:sides="6"
       sodipodi:cx="96.974648"
       sodipodi:cy="162.41782"
       sodipodi:r1="84.385536"
       sodipodi:r2="73.080017"
       sodipodi:arg1="-3.1415927"
       sodipodi:arg2="-2.6179939"
       inkscape:flatsided="true"
       inkscape:rounded="0"
       inkscape:randomized="0"
       d="m 12.589111,162.41782 42.192765,-73.08002 84.385534,-4e-6 42.19277,73.080014 -42.19276,73.08002 -84.385537,1e-5 z"
       transform="matrix(3.9642888,0,0,3.9765482,-11.726287,-144.15125)"
       inkscape:export-xdpi="41.624153"
       inkscape:export-ydpi="41.624153" />
    <g
       class=""
       id="g4142"
       transform="matrix(1.2224915,0,0,1.1290451,56.250046,228.39938)"
       inkscape:export-xdpi="41.624153"
       inkscape:export-ydpi="41.624153">
      <path
         style="fill:#ffffff;fill-opacity:1"
         inkscape:connector-curvature="0"
         d="M 258.495,20.105 C 176.67,77.45 133.118,142.24 128,207.63 l 92.155,54.124 -55.14,-56.092 c 3.663,-46.824 34.847,-93.22 93.44,-134.283 58.593,41.06 89.594,87.573 93.257,134.393 l -55.15,55.957 92.162,-53.947 C 383.61,142.397 340.32,77.45 258.494,20.105 Z M 221.72,165.123 c -7.276,0 -14.467,5.39 -21.096,13.498 13.207,15.957 29.007,16.098 42.19,0 -6.682,-8.27 -13.746,-13.5 -21.094,-13.497 z m 70.484,0 c -7.275,0 -14.467,5.39 -21.096,13.498 13.208,15.957 29.01,16.098 42.194,0 -6.683,-8.27 -13.75,-13.5 -21.098,-13.497 z m -154.47,73.31 -1.89,1.758 c -0.005,-0.03 -0.015,-0.06 -0.02,-0.09 l -0.13,0.232 -65.703,61.172 c 23.93,63.466 25.263434,63.65941 22.781434,127.12541 l 31.532846,62.63194 C 117.33128,456.36235 113.807,414.45 112.994,370.805 c 9.11,6.8 20.807,11.917 34.938,14.743 -11.63,-10.79 -17.805,-24.947 -15.8,-39.158 15.38,7.1 32.653,9.094 50.66,4.612 -18.75,-8 -34.94,-23.658 -43.06,-43.756 26.933,14.15 55.292,18.642 79.36,9.774 -36.237,-8.91 -74.074,-37.57 -82.896,-75.346 0.505,-1.084 1.015,-2.165 1.54,-3.24 z m 236.533,0 c 0.302,0.62 0.59,1.247 0.886,1.87 l -0.11,-0.203 c -8.12,38.556 -46.53,67.887 -83.27,76.92 25.592,9.43 56.036,3.753 84.458,-12.58 -7.7,21.447 -24.524,38.192 -44.14,46.562 16.47,4.1 32.326,2.785 46.682,-2.9 1.297,13.63 -4.84,27.088 -16.003,37.445 14.82,-2.964 26.97,-8.446 36.258,-15.748 -0.722,43.995 1.54059,85.65871 -5.48741,120.82971 L 422.152,435.58852 C 419.668,372.12152 418.08,364.969 442.009,301.504 l -67.743,-63.07 z"
         id="path4144"
         sodipodi:nodetypes="cccccccccccccccccccccccccccccccccccccccccccccccccc" />
    </g>
    <path
       sodipodi:type="star"
       style="color:#000000;clip-rule:nonzero;display:inline;overflow:visible;visibility:visible;opacity:1;isolation:auto;mix-blend-mode:normal;color-interpolation:sRGB;color-interpolation-filters:linearRGB;solid-color:#000000;solid-opacity:1;fill:none;fill-opacity:1;fill-rule:nonzero;stroke:#857d7d;stroke-width:4.31539631;stroke-linecap:round;stroke-linejoin:miter;stroke-miterlimit:4;stroke-dasharray:none;stroke-dashoffset:0;stroke-opacity:0.99337751;color-rendering:auto;image-rendering:auto;shape-rendering:auto;text-rendering:auto;enable-background:accumulate"
       id="path4138-1"
       sodipodi:sides="6"
       sodipodi:cx="96.974648"
       sodipodi:cy="162.41782"
       sodipodi:r1="84.385536"
       sodipodi:r2="73.080017"
       sodipodi:arg1="-3.1415927"
       sodipodi:arg2="-2.6179939"
       inkscape:flatsided="true"
       inkscape:rounded="0"
       inkscape:randomized="0"
       d="m 12.589111,162.41782 42.192765,-73.08002 84.385534,-4e-6 42.19277,73.080014 -42.19276,73.08002 -84.385537,1e-5 z"
       transform="matrix(3.9642888,0,0,3.9765482,-12.658763,-144.90122)"
       inkscape:export-xdpi="41.624153"
       inkscape:export-ydpi="41.624153" />
  </g>
</svg>
