<?xml version="1.0" encoding="UTF-8" standalone="no"?>
<svg
   xmlns:dc="http://purl.org/dc/elements/1.1/"
   xmlns:cc="http://creativecommons.org/ns#"
   xmlns:rdf="http://www.w3.org/1999/02/22-rdf-syntax-ns#"
   xmlns:svg="http://www.w3.org/2000/svg"
   xmlns="http://www.w3.org/2000/svg"
   xmlns:sodipodi="http://sodipodi.sourceforge.net/DTD/sodipodi-0.dtd"
   xmlns:inkscape="http://www.inkscape.org/namespaces/inkscape"
   viewBox="0 0 512 512"
   style="height: 512px; width: 512px;"
   id="svg2"
   version="1.1"
   inkscape:version="0.91 r13725"
   sodipodi:docname="kevlar.svg">
  <metadata
     id="metadata14">
    <rdf:RDF>
      <cc:Work
         rdf:about="">
        <dc:format>image/svg+xml</dc:format>
        <dc:type
           rdf:resource="http://purl.org/dc/dcmitype/StillImage" />
      </cc:Work>
    </rdf:RDF>
  </metadata>
  <defs
     id="defs12" />
  <sodipodi:namedview
     pagecolor="#ffffff"
     bordercolor="#666666"
     borderopacity="1"
     objecttolerance="10"
     gridtolerance="10"
     guidetolerance="10"
     inkscape:pageopacity="0"
     inkscape:pageshadow="2"
     inkscape:window-width="1920"
     inkscape:window-height="1027"
     id="namedview10"
     showgrid="false"
     inkscape:zoom="1.84375"
     inkscape:cx="273.35699"
     inkscape:cy="268.00127"
     inkscape:window-x="1272"
     inkscape:window-y="-8"
     inkscape:window-maximized="1"
     inkscape:current-layer="svg2" />
  <path
     style="fill:#000000;fill-opacity:0.04733728;stroke:#000000;stroke-opacity:0.26627219;stroke-width:12;stroke-miterlimit:4;stroke-dasharray:none;stroke-linejoin:round"
     inkscape:connector-curvature="0"
     id="path8"
     d="m 436,439.525 0,-141.177 c -30,-28.235 -60,-56.47 -60,-84.706 0,-56.47 30,-141.176 120,-169.41 0,0 -30,-28.237 -60,-28.237 l -90,0 c 0,56.47 -60,84.706 -90,84.706 -30,0 -90,-28.234 -90,-84.705 l -90,0 c -30,0 -60,28.236 -60,28.236 90,28.236 120,112.942 120,169.412 0,28.236 -30,56.47 -60,84.706 l 0,141.177 c 60,28.235 120,56.47 180,56.47 60,0 120,-28.235 180,-56.47 z" />
  <path
     style="fill:none;fill-opacity:1;stroke:#ffffff;stroke-width:3;stroke-linejoin:miter;stroke-miterlimit:4;stroke-dasharray:none;stroke-opacity:0.65088755"
     inkscape:connector-curvature="0"
     id="path8-0"
     d="m 436,439.35951 0,-141.177 c -30,-28.235 -60,-56.47 -60,-84.706 0,-56.47 30,-141.176002 120,-169.410002 0,0 -30,-28.237 -60,-28.237 l -90,0 c 0,56.47 -60,84.706002 -90,84.706002 -30,0 -90,-28.234002 -90,-84.705002 l -89.999996,0 c -30,0 -60,28.236 -60,28.236 C 106,72.302508 136,157.00851 136,213.47851 c 0,28.236 -30,56.47 -59.999996,84.706 l 0,141.177 C 136,467.59651 196,495.83151 256,495.83151 c 60,0 120,-28.235 180,-56.47 z"
     mask="none" />
</svg>
